<svg width="34" height="34" viewBox="0 0 34 34" fill="none" xmlns="http://www.w3.org/2000/svg">
<path d="M14.1249 7.90071L14.9781 10.2701C15.9258 12.8998 17.9966 14.9706 20.6263 15.9183L22.9957 16.7715C23.2093 16.8491 23.2093 17.1519 22.9957 17.2284L20.6263 18.0816C17.9966 19.0293 15.9258 21.1002 14.9781 23.7298L14.1249 26.0992C14.0473 26.3128 13.7445 26.3128 13.668 26.0992L12.8148 23.7298C11.8671 21.1002 9.79626 19.0293 7.16657 18.0816L4.7972 17.2284C4.58363 17.1508 4.58363 16.848 4.7972 16.7715L7.16657 15.9183C9.79626 14.9706 11.8671 12.8998 12.8148 10.2701L13.668 7.90071C13.7445 7.68609 14.0473 7.68609 14.1249 7.90071Z" fill="#B8B8B8"/>
<path d="M24.7903 2.20683L25.2227 3.4064C25.703 4.73771 26.7516 5.7864 28.083 6.26665L29.2825 6.69908C29.3909 6.7384 29.3909 6.8914 29.2825 6.93071L28.083 7.36315C26.7516 7.8434 25.703 8.89208 25.2227 10.2234L24.7903 11.423C24.751 11.5313 24.598 11.5313 24.5586 11.423L24.1262 10.2234C23.646 8.89208 22.5973 7.8434 21.266 7.36315L20.0664 6.93071C19.958 6.8914 19.958 6.7384 20.0664 6.69908L21.266 6.26665C22.5973 5.7864 23.646 4.73771 24.1262 3.4064L24.5586 2.20683C24.598 2.0974 24.752 2.0974 24.7903 2.20683Z" fill="#B8B8B8"/>
<path d="M24.7903 22.5781L25.2227 23.7777C25.703 25.109 26.7516 26.1577 28.083 26.6379L29.2825 27.0704C29.3909 27.1097 29.3909 27.2627 29.2825 27.302L28.083 27.7344C26.7516 28.2147 25.703 29.2634 25.2227 30.5947L24.7903 31.7942C24.751 31.9026 24.598 31.9026 24.5586 31.7942L24.1262 30.5947C23.646 29.2634 22.5973 28.2147 21.266 27.7344L20.0664 27.302C19.958 27.2627 19.958 27.1097 20.0664 27.0704L21.266 26.6379C22.5973 26.1577 23.646 25.109 24.1262 23.7777L24.5586 22.5781C24.598 22.4697 24.752 22.4697 24.7903 22.5781Z" fill="#B8B8B8"/>
</svg>
