<svg width="34" height="34" viewBox="0 0 34 34" fill="none" xmlns="http://www.w3.org/2000/svg">
<path d="M14.1249 7.90071L14.9781 10.2701C15.9258 12.8998 17.9966 14.9706 20.6263 15.9183L22.9957 16.7715C23.2093 16.8491 23.2093 17.1519 22.9957 17.2284L20.6263 18.0816C17.9966 19.0293 15.9258 21.1002 14.9781 23.7298L14.1249 26.0992C14.0473 26.3128 13.7445 26.3128 13.668 26.0992L12.8148 23.7298C11.8671 21.1002 9.79626 19.0293 7.16657 18.0816L4.7972 17.2284C4.58363 17.1508 4.58363 16.848 4.7972 16.7715L7.16657 15.9183C9.79626 14.9706 11.8671 12.8998 12.8148 10.2701L13.668 7.90071C13.7445 7.68609 14.0473 7.68609 14.1249 7.90071Z" fill="url(#paint0_linear_30_1427)"/>
<path d="M29.2815 27.3304L28.08 27.7572C26.7464 28.2313 25.6929 29.2751 25.2064 30.6041L24.7684 31.8017C24.7286 31.9098 24.5756 31.9091 24.5368 31.8006L24.1099 30.599C23.6359 29.2655 22.5921 28.2119 21.263 27.7255L20.0655 27.2875C19.9573 27.2477 19.958 27.0947 20.0666 27.0559L21.2681 26.629C22.6017 26.155 23.6552 25.1112 24.1417 23.7821L24.5797 22.5846C24.6195 22.4764 24.7725 22.4771 24.8113 22.5856L25.2382 23.7872C25.7122 25.1207 26.756 26.1743 28.0851 26.6607L29.2826 27.0987C29.3919 27.1386 29.3911 27.2926 29.2815 27.3304Z" fill="url(#paint1_linear_30_1427)"/>
<path d="M24.7903 2.20604L25.2227 3.4056C25.703 4.73691 26.7516 5.7856 28.083 6.26585L29.2825 6.69829C29.3909 6.7376 29.3909 6.8906 29.2825 6.92991L28.083 7.36235C26.7516 7.8426 25.703 8.89129 25.2227 10.2226L24.7903 11.4222C24.751 11.5305 24.598 11.5305 24.5586 11.4222L24.1262 10.2226C23.646 8.89129 22.5973 7.8426 21.266 7.36235L20.0664 6.92991C19.958 6.8906 19.958 6.7376 20.0664 6.69829L21.266 6.26585C22.5973 5.7856 23.646 4.73691 24.1262 3.4056L24.5586 2.20604C24.598 2.09766 24.752 2.09766 24.7903 2.20604Z" fill="url(#paint2_linear_30_1427)"/>
<defs>
<linearGradient id="paint0_linear_30_1427" x1="4.63702" y1="16.9996" x2="23.1559" y2="16.9996" gradientUnits="userSpaceOnUse">
<stop stop-color="#50C0F8"/>
<stop offset="1" stop-color="#0057D0"/>
</linearGradient>
<linearGradient id="paint1_linear_30_1427" x1="24.6963" y1="22.5038" x2="24.6526" y2="31.8824" gradientUnits="userSpaceOnUse">
<stop stop-color="#50C0F8"/>
<stop offset="1" stop-color="#0057D0"/>
</linearGradient>
<linearGradient id="paint2_linear_30_1427" x1="19.9851" y1="6.8141" x2="29.3638" y2="6.8141" gradientUnits="userSpaceOnUse">
<stop stop-color="#50C0F8"/>
<stop offset="1" stop-color="#0057D0"/>
</linearGradient>
</defs>
</svg>
