<svg width="54" height="54" viewBox="0 0 54 54" fill="none" xmlns="http://www.w3.org/2000/svg">
<rect width="54" height="54" rx="16" fill="#F5F5FF"/>
<path d="M31.25 15.3125C31.8368 15.3125 32.3125 14.8368 32.3125 14.25C32.3125 13.6632 31.8368 13.1875 31.25 13.1875H26.936C24.3341 13.1875 22.2947 13.1875 20.6767 13.3628C19.0255 13.5417 17.6876 13.9133 16.5453 14.7432C15.8538 15.2456 15.2456 15.8538 14.7432 16.5453C13.9133 17.6876 13.5417 19.0255 13.3628 20.6767C13.1875 22.2947 13.1875 24.3341 13.1875 26.936V27.064C13.1875 29.6659 13.1875 31.7053 13.3628 33.3233C13.5417 34.9746 13.9133 36.3123 14.7432 37.4547C15.2456 38.1462 15.8538 38.7544 16.5453 39.2567C17.6876 40.0867 19.0255 40.4583 20.6767 40.6373C22.2947 40.8125 24.3341 40.8125 26.9358 40.8125H27.0642C29.6659 40.8125 31.7053 40.8125 33.3233 40.6373C34.9746 40.4583 36.3123 40.0867 37.4547 39.2567C38.1462 38.7544 38.7544 38.1462 39.2567 37.4547C40.0867 36.3123 40.4583 34.9746 40.6373 33.3233C40.8125 31.7053 40.8125 29.6659 40.8125 27.0642V22.75C40.8125 22.1632 40.3368 21.6875 39.75 21.6875C39.1632 21.6875 38.6875 22.1632 38.6875 22.75V27C38.6875 29.6798 38.6861 31.6042 38.5246 33.0945C38.3652 34.5649 38.0605 35.486 37.5376 36.2056C37.1663 36.7168 36.7168 37.1663 36.2056 37.5376C35.486 38.0605 34.5649 38.3652 33.0945 38.5246C31.6042 38.6861 29.6798 38.6875 27 38.6875C24.3202 38.6875 22.3958 38.6861 20.9056 38.5246C19.4352 38.3652 18.5141 38.0605 17.7944 37.5376C17.2832 37.1663 16.8337 36.7168 16.4624 36.2056C15.9395 35.486 15.6347 34.5649 15.4754 33.0945C15.314 31.6042 15.3125 29.6798 15.3125 27C15.3125 24.3202 15.314 22.3958 15.4754 20.9056C15.6347 19.4352 15.9395 18.5141 16.4624 17.7944C16.8337 17.2832 17.2832 16.8337 17.7944 16.4624C18.5141 15.9395 19.4352 15.6347 20.9056 15.4754C22.3958 15.314 24.3202 15.3125 27 15.3125H31.25Z" fill="#959595"/>
<path d="M18.9628 30.5796C18.7043 31.1065 18.9219 31.7431 19.4488 32.0015C19.9756 32.2599 20.6122 32.0423 20.8706 31.5155L22.9394 27.2981C23.5806 25.9908 25.4653 26.0547 26.0166 27.4023C27.2621 30.4468 31.5197 30.591 32.9684 27.6378L35.0373 23.4203C35.2957 22.8935 35.0781 22.2569 34.5513 21.9985C34.0244 21.74 33.3879 21.9576 33.1294 22.4845L31.0606 26.7019C30.4194 28.0092 28.5347 27.9453 27.9835 26.5977C26.7379 23.5532 22.4802 23.409 21.0316 26.3622L18.9628 30.5796Z" fill="#959595"/>
<path fill-rule="evenodd" clip-rule="evenodd" d="M34.7917 15.6667C34.7917 17.6227 36.3774 19.2083 38.3334 19.2083C40.2893 19.2083 41.875 17.6227 41.875 15.6667C41.875 13.7107 40.2893 12.125 38.3334 12.125C36.3774 12.125 34.7917 13.7107 34.7917 15.6667ZM36.9167 15.6667C36.9167 16.4491 37.5509 17.0833 38.3334 17.0833C39.1158 17.0833 39.75 16.4491 39.75 15.6667C39.75 14.8843 39.1158 14.25 38.3334 14.25C37.5509 14.25 36.9167 14.8843 36.9167 15.6667Z" fill="#959595"/>
</svg>
