<svg width="34" height="34" viewBox="0 0 34 34" fill="none" xmlns="http://www.w3.org/2000/svg">
<path fill-rule="evenodd" clip-rule="evenodd" d="M28.3333 9.91667C25.9861 9.91667 24.0833 8.01387 24.0833 5.66667C24.0833 4.90182 24.2854 4.18417 24.639 3.56416C24.2233 3.47804 23.7855 3.41286 23.3233 3.36278C21.7053 3.18749 19.6659 3.18749 17.064 3.1875H16.936C14.3341 3.18749 12.2947 3.18749 10.6767 3.36278C9.0255 3.54168 7.68763 3.91329 6.54534 4.74321C5.85379 5.24565 5.24565 5.85379 4.74321 6.54534C3.91329 7.68763 3.54168 9.0255 3.36278 10.6767C3.18749 12.2947 3.18749 14.3341 3.1875 16.9358V17.064C3.18749 19.6659 3.18749 21.7053 3.36278 23.3233C3.54168 24.9746 3.91329 26.3123 4.74321 27.4547C5.24565 28.1462 5.85379 28.7544 6.54534 29.2567C7.68763 30.0867 9.0255 30.4583 10.6767 30.6373C12.2947 30.8125 14.3341 30.8125 16.9358 30.8125H17.0642C19.6659 30.8125 21.7053 30.8125 23.3233 30.6373C24.9746 30.4583 26.3123 30.0867 27.4547 29.2567C28.1462 28.7544 28.7544 28.1462 29.2567 27.4547C30.0867 26.3123 30.4583 24.9746 30.6373 23.3233C30.8125 21.7053 30.8125 19.6659 30.8125 17.0642V16.9358C30.8125 14.3341 30.8125 12.2947 30.6373 10.6767C30.5871 10.2144 30.5219 9.77674 30.4358 9.36102C29.8159 9.71464 29.0982 9.91667 28.3333 9.91667ZM24.5513 11.9985C25.0781 12.2569 25.2957 12.8935 25.0373 13.4203L22.9684 17.6378C21.5197 20.591 17.2621 20.4468 16.0166 17.4023C15.4653 16.0547 13.5806 15.9908 12.9394 17.2981L10.8706 21.5155C10.6122 22.0423 9.97557 22.2599 9.44874 22.0015C8.92191 21.7431 8.70433 21.1065 8.96275 20.5796L11.0316 16.3622C12.4802 13.409 16.7379 13.5532 17.9834 16.5977C18.5347 17.9453 20.4194 18.0092 21.0606 16.7019L23.1293 12.4844C23.3879 11.9576 24.0244 11.74 24.5513 11.9985Z" fill="url(#paint0_linear_50_150)"/>
<path d="M25.5 5.66668C25.5 7.23148 26.7685 8.50001 28.3333 8.50001C29.8982 8.50001 31.1667 7.23148 31.1667 5.66668C31.1667 4.10187 29.8982 2.83334 28.3333 2.83334C26.7685 2.83334 25.5 4.10187 25.5 5.66668Z" fill="url(#paint1_linear_50_150)"/>
<defs>
<linearGradient id="paint0_linear_50_150" x1="3.1875" y1="17" x2="30.8125" y2="17" gradientUnits="userSpaceOnUse">
<stop offset="0.166667" stop-color="#4CA1AF"/>
<stop offset="0.552083" stop-color="#2C3E50"/>
</linearGradient>
<linearGradient id="paint1_linear_50_150" x1="25.5" y1="5.66668" x2="31.1667" y2="5.66668" gradientUnits="userSpaceOnUse">
<stop offset="0.166667" stop-color="#4CA1AF"/>
<stop offset="0.552083" stop-color="#2C3E50"/>
</linearGradient>
</defs>
</svg>
