<svg width="34" height="34" viewBox="0 0 34 34" fill="none" xmlns="http://www.w3.org/2000/svg">
<path d="M24.2857 31.5714H9.71427C5.70713 31.5714 2.42856 28.2929 2.42856 24.2857V9.7143C2.42856 5.70716 5.70713 2.42859 9.71427 2.42859H18.2143H24.2857C28.2928 2.42859 31.5714 5.70716 31.5714 9.7143V24.2857C31.5714 28.2929 28.2928 31.5714 24.2857 31.5714ZM4.85713 12.1429V24.2857C4.85713 26.9572 7.04284 29.1429 9.71427 29.1429H24.2857C26.9571 29.1429 29.1428 26.9572 29.1428 24.2857V12.1429H4.85713ZM23.6786 9.7143H29.1428C29.1428 7.04287 26.9571 4.85716 24.2857 4.85716H20.5214L23.6786 9.7143ZM15.1786 9.7143H20.7643L17.4857 4.85716H12.0214L15.1786 9.7143ZM4.85713 9.7143H12.2643L9.10713 4.85716C6.67856 5.22145 4.85713 7.28573 4.85713 9.7143ZM15.7857 19.1857V22.2214L18.3357 20.7643L15.7857 19.1857ZM14.5714 25.5C13.9643 25.5 13.3571 24.8929 13.3571 24.2857V17C13.3571 16.5143 13.6 16.15 13.9643 15.9072C14.3286 15.6643 14.8143 15.6643 15.1786 15.9072L21.25 19.55C21.6143 19.7929 21.8571 20.1572 21.8571 20.6429C21.8571 21.1286 21.6143 21.4929 21.25 21.7357L15.1786 25.3786C15.0571 25.5 14.8143 25.5 14.5714 25.5Z" fill="#B8B8B8"/>
</svg>
