<svg width="34" height="34" viewBox="0 0 34 34" fill="none" xmlns="http://www.w3.org/2000/svg">
<path d="M2.42856 12.1429V24.2857C2.42856 28.2929 5.70713 31.5714 9.71427 31.5714H24.2857C28.2928 31.5714 31.5714 28.2929 31.5714 24.2857V12.1429H2.42856ZM24.2857 9.7143H31.5714C31.5714 5.70716 28.2928 2.42859 24.2857 2.42859H20.6428L24.2857 9.7143ZM15.7857 9.7143H21.8571L18.2143 2.42859H12.1428L15.7857 9.7143ZM2.42856 9.7143H13.3571L9.71427 2.42859C5.70713 2.42859 2.42856 5.70716 2.42856 9.7143ZM14.5714 25.5C13.9643 25.5 13.3571 24.8929 13.3571 24.2857V17C13.3571 16.5143 13.6 16.15 13.9643 15.9072C14.3286 15.6643 14.8143 15.6643 15.1786 15.9072L21.25 19.55C21.6143 19.7929 21.8571 20.1572 21.8571 20.6429C21.8571 21.1286 21.6143 21.4929 21.25 21.7357L15.1786 25.3786C15.0571 25.5 14.8143 25.5 14.5714 25.5Z" fill="url(#paint0_linear_30_1411)"/>
<defs>
<linearGradient id="paint0_linear_30_1411" x1="2.42856" y1="17" x2="31.5714" y2="17" gradientUnits="userSpaceOnUse">
<stop stop-color="#FC904E"/>
<stop offset="0.5" stop-color="#FF3450"/>
<stop offset="1" stop-color="#FF00F8"/>
</linearGradient>
</defs>
</svg>
